<?xml version="1.0" encoding="UTF-8"?><svg id="Lag_1" xmlns="http://www.w3.org/2000/svg" viewBox="0 0 46.59 62.74"><defs><style>.cls-1{fill:#fff;}</style></defs><path class="cls-1" d="M15.23,0l.5,17.56s1.56,1.72,4.56-2.44l-.06-12.44s-1.28-2.67-5-2.67Z"/><path class="cls-1" d="M13.56,.11l.56,18s-4.89,2.17-2.83,7.78c0,0,10.17,19.72,11.11,20.56s3.06,3.06,6.78,.78l14.5,11.39s-8.78,6.06-16.44,3.5-16.17-13.67-16.17-13.67c0,0-9.5-11.33-10.17-24.44C.89,24-.27,13.06,.06,10.28S2.62,.83,13.56,.11Z"/><path class="cls-1" d="M30.56,45.83l14.78,11.78,1.22-4s.5-1.44-2.5-3.44-7.22-5.61-7.22-5.61c0,0-1.72-1.56-3.56-.06l-2.72,1.33Z"/></svg>