<?xml version="1.0" encoding="UTF-8"?><svg id="Lag_1" xmlns="http://www.w3.org/2000/svg" viewBox="0 0 70.39 60.33"><defs><style>.cls-1{fill:#fff;}</style></defs><path class="cls-1" d="M20.94,6.89l4.39,.06s-.11-1.67,1.94-1.83,15.83-.06,15.83-.06c0,0,1.72,0,2.06,1.83l4.33,.06s.67-5.72-5.39-6.94H26.78s-5.22,.11-5.83,6.89Z"/><path class="cls-1" d="M21.33,6.94l-19.17,.06S.17,7.5,.22,9.22s-.06,9.11-.06,9.11l26.94,10.11s1.44-3.44,6.06-3.72l4.61,.06s3.78,.33,5.28,3.67l27.22-10.67-.06-8.39s.33-1.78-1.94-2.39h-19.11s-2.22,3.5-6.56,3.28l-14.83-.06s-4.89-.06-6.44-3.28Z"/><rect class="cls-1" x="30.5" y="29.28" width="9.17" height="8.72" rx="2.64" ry="2.64"/><path class="cls-1" d="M26.33,33s-.67,7.5,5.06,9.61l6.33,.06s6.94-.22,6.44-9.67l26.22-10.44V57.72s.11,2.44-2.61,2.5-65.39,.11-65.39,.11c0,0-1.89,.06-2.17-2.33l-.22-34.83,26.33,9.83Z"/></svg>