<?xml version="1.0" encoding="UTF-8"?><svg id="Lag_1" xmlns="http://www.w3.org/2000/svg" viewBox="0 0 49.96 49.81"><defs><style>.cls-1,.cls-2{fill:#fff;}.cls-2{stroke:#fff;stroke-miterlimit:10;}</style></defs><path class="cls-1" d="M27.23,6.26c-1.23-1.12-3.23-1.12-4.46,0C16.28,12.12,5,21.84,5,22.46v24.73c0,1.44,1.28,2.61,2.87,2.61H28.28V31.01c0-.83,.66-1.5,1.47-1.5h7.06c.81,0,1.47,.67,1.47,1.5v18.79h3.86c1.58,0,2.87-1.17,2.87-2.61V22.46c-.02-.96-11.35-10.53-17.77-16.2Zm-5.73,34.07c0,.63-.51,1.15-1.13,1.15h-7.74c-.62,0-1.13-.51-1.13-1.15v-7.86c0-.63,.51-1.15,1.13-1.15h7.74c.62,0,1.13,.51,1.13,1.15v7.86Z"/><g><line class="cls-2" x1="16.49" y1="41.59" x2="16.49" y2="31.1"/><line class="cls-2" x1="21.56" y1="36.35" x2="11.42" y2="36.35"/></g><path class="cls-1" d="M49.3,21.34c-2.26-1.99-5.02-4.54-7.86-7.17V5.17c0-.23-.19-.42-.42-.42h-4.17c-.23,0-.42,.19-.42,.42v4.37C30.84,4.36,25.91-.07,25.04,.01h0C23.26-.21,.79,21.19,.76,21.33c0,0-1.72,1.49,0,3.05C8.85,17.27,23.51,3.07,25.03,3.05c1.52-.02,24.27,21.33,24.27,21.33,1.22-1.83,.47-2.49,0-3.05Z"/></svg>