<?xml version="1.0" encoding="UTF-8"?><svg id="Lag_1" xmlns="http://www.w3.org/2000/svg" viewBox="0 0 81.29 57.39"><defs><style>.cls-1{fill:#1d1d1b;}</style></defs><path class="cls-1" d="M41.5,0l38.78,13.67s2.11,1.06,.22,2l-37.87,13.24s-.8,.37-2.13-.24l-19-6.33,20.22-8.22s2.5-.83,1.17-2.78c0,0-.56-1.61-2.83-.67S15.83,20.56,15.83,20.56c0,0-4.61,3-4.67,11,0,0,1.83,.78,1.94,2.94s-1.67,3.61-1.67,3.61c0,0,1.17,8.94-.5,13.94s-5.17,5.33-5.17,5.33l-5.78-3.06s6.67-7.11,7.44-15.78c0,0-2.44-1.22-2.17-3.56s.94-3.17,2.44-3.72c0,0-.56-7.78,4.06-12L2,15.61s-1.78-1.06,.72-2.11C2.72,13.5,38.67-.17,41.5,0Z"/><path class="cls-1" d="M17.11,25.67l23.83,8.17s.67,.5,2.17-.06,24-8.39,24-8.39l.06,13.39s-.28,1.78-3.44,3.22-9.39,4.67-19.06,5.28-18-1.94-18-1.94c0,0-6.61-2.56-8.28-3.56,0,0-.67-.67-1-1.78,0,0,3.72-4.44-.28-8.39v-5.94Z"/></svg>