<?xml version="1.0" encoding="UTF-8"?><svg id="Lag_1" xmlns="http://www.w3.org/2000/svg" viewBox="0 0 66.18 56.94"><defs><style>.cls-1{fill:#1d1d1b;}</style></defs><path class="cls-1" d="M61.33,17.49l4.85,4.81-9.78,9.89-5.67-5.07s2-2.63-.7-5.15-5.85,.7-5.85,.7l-5.19-5.22s6.63-12.15-9.04-14.89c0,0-1.56-.93,3.56-2.26s12.44,2.11,12.44,2.11l10.04,10.33s-.48,2.93,.93,4.19,4.41,.56,4.41,.56Z"/><path class="cls-1" d="M37.36,19.71l4.93,4.96-13.89,15.15-12.37,13.26s-4.11,3.07-7.41,.07,.15-7.44,.15-7.44l28.59-26Z"/><path class="cls-1" d="M6.4,7.01s17.63-3.74,14.81,13.26l4.78,5.26-7.33,7.26-4.59-5S-3.79,27.57,.73,12.68l6.56,6.59s1.37,1.26,2.59-.22,3.04-2.96,3.04-2.96c0,0,1.67-1.15-.33-2.81S6.4,7.01,6.4,7.01Z"/><path class="cls-1" d="M36.44,36.23l11.81,12.52s2.37,2.74-.37,6.3-6.93,1-6.93,1l-11.7-12.19,7.19-7.63Z"/><path class="cls-1" d="M42.25,50.2s2-1.7,3.59-.04,.41,3.11,.41,3.11c0,0-1.67,2.19-3.74,.44s-.26-3.52-.26-3.52Z"/></svg>